<?xml version="1.0" encoding="UTF-8" standalone="no"?>
<svg
   xmlns:dc="http://purl.org/dc/elements/1.1/"
   xmlns:cc="http://creativecommons.org/ns#"
   xmlns:rdf="http://www.w3.org/1999/02/22-rdf-syntax-ns#"
   xmlns:svg="http://www.w3.org/2000/svg"
   xmlns="http://www.w3.org/2000/svg"
   xmlns:sodipodi="http://sodipodi.sourceforge.net/DTD/sodipodi-0.dtd"
   xmlns:inkscape="http://www.inkscape.org/namespaces/inkscape"
   sodipodi:docname="pulse_attenuation_sim.svg"
   inkscape:version="1.0 (4035a4fb49, 2020-05-01)"
   id="svg4043"
   version="1.1"
   viewBox="0 0 283.54407 131.36475"
   height="131.36475mm"
   width="283.54407mm">
  <defs
     id="defs4037">
    <pattern
       id="EMFhbasepattern"
       patternUnits="userSpaceOnUse"
       width="6"
       height="6"
       x="0"
       y="0" />
  </defs>
  <sodipodi:namedview
     inkscape:window-maximized="1"
     inkscape:window-y="-9"
     inkscape:window-x="2551"
     inkscape:window-height="1361"
     inkscape:window-width="2560"
     fit-margin-bottom="0"
     fit-margin-right="0"
     fit-margin-left="0"
     fit-margin-top="0"
     showgrid="false"
     inkscape:document-rotation="0"
     inkscape:current-layer="layer1"
     inkscape:document-units="mm"
     inkscape:cy="338.2914"
     inkscape:cx="906.69082"
     inkscape:zoom="0.7"
     inkscape:pageshadow="2"
     inkscape:pageopacity="0.0"
     borderopacity="1.0"
     bordercolor="#666666"
     pagecolor="#ffffff"
     id="base" />
  <metadata
     id="metadata4040">
    <rdf:RDF>
      <cc:Work
         rdf:about="">
        <dc:format>image/svg+xml</dc:format>
        <dc:type
           rdf:resource="http://purl.org/dc/dcmitype/StillImage" />
        <dc:title></dc:title>
      </cc:Work>
    </rdf:RDF>
  </metadata>
  <g
     transform="translate(63.842316,-99.11525)"
     id="layer1"
     inkscape:groupmode="layer"
     inkscape:label="Ebene 1">
    <g
       id="g5343">
      <path
         style="fill:none;stroke:#000000;stroke-width:0.2335px;stroke-linecap:round;stroke-linejoin:round;stroke-miterlimit:4;stroke-dasharray:none;stroke-opacity:1"
         d="m -53.743244,224.7353 v 2.1015"
         id="path4609" />
      <text
         xml:space="preserve"
         style="font-style:normal;font-variant:normal;font-weight:700;font-size:3.96875px;line-height:125%;font-family:Arial;text-align:start;letter-spacing:0px;word-spacing:0px;text-anchor:start;fill:#000000;fill-opacity:1;stroke:none;stroke-width:0.264583"
         x="-57.312973"
         y="230.42961"
         id="text4615"><tspan
           sodipodi:role="line"
           x="-57.312973"
           y="230.42961"
           id="tspan4613"
           style="stroke-width:0.264583"><tspan
             dx="0"
             dy="0"
             style="font-style:normal;font-variant:normal;font-weight:700;font-size:3.96875px;font-family:Arial;fill:#000000;stroke-width:0.264583"
             id="tspan4611">0ns</tspan></tspan></text>
      <path
         style="fill:none;stroke:#000000;stroke-width:0.2335px;stroke-linecap:round;stroke-linejoin:round;stroke-miterlimit:4;stroke-dasharray:none;stroke-opacity:1"
         d="m -35.530245,224.7353 v 2.1015"
         id="path4617" />
      <text
         xml:space="preserve"
         style="font-style:normal;font-variant:normal;font-weight:700;font-size:3.96875px;line-height:125%;font-family:Arial;text-align:start;letter-spacing:0px;word-spacing:0px;text-anchor:start;fill:#000000;fill-opacity:1;stroke:none;stroke-width:0.264583"
         x="-39.099976"
         y="230.42961"
         id="text4623"><tspan
           sodipodi:role="line"
           x="-39.099976"
           y="230.42961"
           id="tspan4621"
           style="stroke-width:0.264583"><tspan
             dx="0"
             dy="0"
             style="font-style:normal;font-variant:normal;font-weight:700;font-size:3.96875px;font-family:Arial;fill:#000000;stroke-width:0.264583"
             id="tspan4619">2ns</tspan></tspan></text>
      <path
         style="fill:none;stroke:#808080;stroke-width:0.2335px;stroke-linecap:round;stroke-linejoin:round;stroke-miterlimit:4;stroke-dasharray:0.264583, 0.264583;stroke-dashoffset:0;stroke-opacity:1"
         d="m -35.530245,224.7353 v -121.42"
         id="path4625" />
      <path
         style="fill:none;stroke:#000000;stroke-width:0.2335px;stroke-linecap:round;stroke-linejoin:round;stroke-miterlimit:4;stroke-dasharray:none;stroke-opacity:1"
         d="m -17.317244,224.7353 v 2.1015"
         id="path4627" />
      <text
         xml:space="preserve"
         style="font-style:normal;font-variant:normal;font-weight:700;font-size:3.96875px;line-height:125%;font-family:Arial;text-align:start;letter-spacing:0px;word-spacing:0px;text-anchor:start;fill:#000000;fill-opacity:1;stroke:none;stroke-width:0.264583"
         x="-20.886974"
         y="230.42961"
         id="text4633"><tspan
           sodipodi:role="line"
           x="-20.886974"
           y="230.42961"
           id="tspan4631"
           style="stroke-width:0.264583"><tspan
             dx="0"
             dy="0"
             style="font-style:normal;font-variant:normal;font-weight:700;font-size:3.96875px;font-family:Arial;fill:#000000;stroke-width:0.264583"
             id="tspan4629">4ns</tspan></tspan></text>
      <path
         style="fill:none;stroke:#808080;stroke-width:0.2335px;stroke-linecap:round;stroke-linejoin:round;stroke-miterlimit:4;stroke-dasharray:0.264583, 0.264583;stroke-dashoffset:0;stroke-opacity:1"
         d="m -17.317244,224.7353 v -121.42"
         id="path4635" />
      <path
         style="fill:none;stroke:#000000;stroke-width:0.2335px;stroke-linecap:round;stroke-linejoin:round;stroke-miterlimit:4;stroke-dasharray:none;stroke-opacity:1"
         d="m 0.89575446,224.7353 v 2.1015"
         id="path4637" />
      <text
         xml:space="preserve"
         style="font-style:normal;font-variant:normal;font-weight:700;font-size:3.96875px;line-height:125%;font-family:Arial;text-align:start;letter-spacing:0px;word-spacing:0px;text-anchor:start;fill:#000000;fill-opacity:1;stroke:none;stroke-width:0.264583"
         x="-2.6739743"
         y="230.42961"
         id="text4643"><tspan
           sodipodi:role="line"
           x="-2.6739743"
           y="230.42961"
           id="tspan4641"
           style="stroke-width:0.264583"><tspan
             dx="0"
             dy="0"
             style="font-style:normal;font-variant:normal;font-weight:700;font-size:3.96875px;font-family:Arial;fill:#000000;stroke-width:0.264583"
             id="tspan4639">6ns</tspan></tspan></text>
      <path
         style="fill:none;stroke:#808080;stroke-width:0.2335px;stroke-linecap:round;stroke-linejoin:round;stroke-miterlimit:4;stroke-dasharray:0.264583, 0.264583;stroke-dashoffset:0;stroke-opacity:1"
         d="m 0.89575446,224.7353 v -121.42"
         id="path4645" />
      <path
         style="fill:none;stroke:#000000;stroke-width:0.2335px;stroke-linecap:round;stroke-linejoin:round;stroke-miterlimit:4;stroke-dasharray:none;stroke-opacity:1"
         d="m 19.108755,224.7353 v 2.1015"
         id="path4647" />
      <text
         xml:space="preserve"
         style="font-style:normal;font-variant:normal;font-weight:700;font-size:3.96875px;line-height:125%;font-family:Arial;text-align:start;letter-spacing:0px;word-spacing:0px;text-anchor:start;fill:#000000;fill-opacity:1;stroke:none;stroke-width:0.264583"
         x="15.539024"
         y="230.42961"
         id="text4653"><tspan
           sodipodi:role="line"
           x="15.539024"
           y="230.42961"
           id="tspan4651"
           style="stroke-width:0.264583"><tspan
             dx="0"
             dy="0"
             style="font-style:normal;font-variant:normal;font-weight:700;font-size:3.96875px;font-family:Arial;fill:#000000;stroke-width:0.264583"
             id="tspan4649">8ns</tspan></tspan></text>
      <path
         style="fill:none;stroke:#808080;stroke-width:0.2335px;stroke-linecap:round;stroke-linejoin:round;stroke-miterlimit:4;stroke-dasharray:0.264583, 0.264583;stroke-dashoffset:0;stroke-opacity:1"
         d="m 19.108755,224.7353 v -121.42"
         id="path4655" />
      <path
         style="fill:none;stroke:#000000;stroke-width:0.2335px;stroke-linecap:round;stroke-linejoin:round;stroke-miterlimit:4;stroke-dasharray:none;stroke-opacity:1"
         d="m 37.321754,224.7353 v 2.1015"
         id="path4657" />
      <text
         xml:space="preserve"
         style="font-style:normal;font-variant:normal;font-weight:700;font-size:3.96875px;line-height:125%;font-family:Arial;text-align:start;letter-spacing:0px;word-spacing:0px;text-anchor:start;fill:#000000;fill-opacity:1;stroke:none;stroke-width:0.264583"
         x="32.478794"
         y="230.42961"
         id="text4663"><tspan
           sodipodi:role="line"
           x="32.478794"
           y="230.42961"
           id="tspan4661"
           style="stroke-width:0.264583"><tspan
             dx="0"
             dy="0"
             style="font-style:normal;font-variant:normal;font-weight:700;font-size:3.96875px;font-family:Arial;fill:#000000;stroke-width:0.264583"
             id="tspan4659">10ns</tspan></tspan></text>
      <path
         style="fill:none;stroke:#808080;stroke-width:0.2335px;stroke-linecap:round;stroke-linejoin:round;stroke-miterlimit:4;stroke-dasharray:0.264583, 0.264583;stroke-dashoffset:0;stroke-opacity:1"
         d="m 37.321754,224.7353 v -121.42"
         id="path4665" />
      <path
         style="fill:none;stroke:#000000;stroke-width:0.2335px;stroke-linecap:round;stroke-linejoin:round;stroke-miterlimit:4;stroke-dasharray:none;stroke-opacity:1"
         d="m 55.534755,224.7353 v 2.1015"
         id="path4667" />
      <text
         xml:space="preserve"
         style="font-style:normal;font-variant:normal;font-weight:700;font-size:3.96875px;line-height:125%;font-family:Arial;text-align:start;letter-spacing:0px;word-spacing:0px;text-anchor:start;fill:#000000;fill-opacity:1;stroke:none;stroke-width:0.264583"
         x="50.691795"
         y="230.42961"
         id="text4673"><tspan
           sodipodi:role="line"
           x="50.691795"
           y="230.42961"
           id="tspan4671"
           style="stroke-width:0.264583"><tspan
             dx="0"
             dy="0"
             style="font-style:normal;font-variant:normal;font-weight:700;font-size:3.96875px;font-family:Arial;fill:#000000;stroke-width:0.264583"
             id="tspan4669">12ns</tspan></tspan></text>
      <path
         style="fill:none;stroke:#808080;stroke-width:0.2335px;stroke-linecap:round;stroke-linejoin:round;stroke-miterlimit:4;stroke-dasharray:0.264583, 0.264583;stroke-dashoffset:0;stroke-opacity:1"
         d="m 55.534755,224.7353 v -121.42"
         id="path4675" />
      <path
         style="fill:none;stroke:#000000;stroke-width:0.2335px;stroke-linecap:round;stroke-linejoin:round;stroke-miterlimit:4;stroke-dasharray:none;stroke-opacity:1"
         d="m 73.747753,224.7353 v 2.1015"
         id="path4677" />
      <text
         xml:space="preserve"
         style="font-style:normal;font-variant:normal;font-weight:700;font-size:3.96875px;line-height:125%;font-family:Arial;text-align:start;letter-spacing:0px;word-spacing:0px;text-anchor:start;fill:#000000;fill-opacity:1;stroke:none;stroke-width:0.264583"
         x="68.904793"
         y="230.42961"
         id="text4683"><tspan
           sodipodi:role="line"
           x="68.904793"
           y="230.42961"
           id="tspan4681"
           style="stroke-width:0.264583"><tspan
             dx="0"
             dy="0"
             style="font-style:normal;font-variant:normal;font-weight:700;font-size:3.96875px;font-family:Arial;fill:#000000;stroke-width:0.264583"
             id="tspan4679">14ns</tspan></tspan></text>
      <path
         style="fill:none;stroke:#808080;stroke-width:0.2335px;stroke-linecap:round;stroke-linejoin:round;stroke-miterlimit:4;stroke-dasharray:0.264583, 0.264583;stroke-dashoffset:0;stroke-opacity:1"
         d="m 73.747753,224.7353 v -121.42"
         id="path4685" />
      <path
         style="fill:none;stroke:#000000;stroke-width:0.2335px;stroke-linecap:round;stroke-linejoin:round;stroke-miterlimit:4;stroke-dasharray:none;stroke-opacity:1"
         d="m 91.960754,224.7353 v 2.1015"
         id="path4687" />
      <text
         xml:space="preserve"
         style="font-style:normal;font-variant:normal;font-weight:700;font-size:3.96875px;line-height:125%;font-family:Arial;text-align:start;letter-spacing:0px;word-spacing:0px;text-anchor:start;fill:#000000;fill-opacity:1;stroke:none;stroke-width:0.264583"
         x="87.11779"
         y="230.42961"
         id="text4693"><tspan
           sodipodi:role="line"
           x="87.11779"
           y="230.42961"
           id="tspan4691"
           style="stroke-width:0.264583"><tspan
             dx="0"
             dy="0"
             style="font-style:normal;font-variant:normal;font-weight:700;font-size:3.96875px;font-family:Arial;fill:#000000;stroke-width:0.264583"
             id="tspan4689">16ns</tspan></tspan></text>
      <path
         style="fill:none;stroke:#808080;stroke-width:0.2335px;stroke-linecap:round;stroke-linejoin:round;stroke-miterlimit:4;stroke-dasharray:0.264583, 0.264583;stroke-dashoffset:0;stroke-opacity:1"
         d="m 91.960754,224.7353 v -121.42"
         id="path4695" />
      <path
         style="fill:none;stroke:#000000;stroke-width:0.2335px;stroke-linecap:round;stroke-linejoin:round;stroke-miterlimit:4;stroke-dasharray:none;stroke-opacity:1"
         d="m 110.17376,224.7353 v 2.1015"
         id="path4697" />
      <text
         xml:space="preserve"
         style="font-style:normal;font-variant:normal;font-weight:700;font-size:3.96875px;line-height:125%;font-family:Arial;text-align:start;letter-spacing:0px;word-spacing:0px;text-anchor:start;fill:#000000;fill-opacity:1;stroke:none;stroke-width:0.264583"
         x="105.33079"
         y="230.42961"
         id="text4703"><tspan
           sodipodi:role="line"
           x="105.33079"
           y="230.42961"
           id="tspan4701"
           style="stroke-width:0.264583"><tspan
             dx="0"
             dy="0"
             style="font-style:normal;font-variant:normal;font-weight:700;font-size:3.96875px;font-family:Arial;fill:#000000;stroke-width:0.264583"
             id="tspan4699">18ns</tspan></tspan></text>
      <path
         style="fill:none;stroke:#808080;stroke-width:0.2335px;stroke-linecap:round;stroke-linejoin:round;stroke-miterlimit:4;stroke-dasharray:0.264583, 0.264583;stroke-dashoffset:0;stroke-opacity:1"
         d="m 110.17376,224.7353 v -121.42"
         id="path4705" />
      <path
         style="fill:none;stroke:#000000;stroke-width:0.2335px;stroke-linecap:round;stroke-linejoin:round;stroke-miterlimit:4;stroke-dasharray:none;stroke-opacity:1"
         d="m 128.38675,224.7353 v 2.1015"
         id="path4707" />
      <text
         xml:space="preserve"
         style="font-style:normal;font-variant:normal;font-weight:700;font-size:3.96875px;line-height:125%;font-family:Arial;text-align:start;letter-spacing:0px;word-spacing:0px;text-anchor:start;fill:#000000;fill-opacity:1;stroke:none;stroke-width:0.264583"
         x="123.54379"
         y="230.42961"
         id="text4713"><tspan
           sodipodi:role="line"
           x="123.54379"
           y="230.42961"
           id="tspan4711"
           style="stroke-width:0.264583"><tspan
             dx="0"
             dy="0"
             style="font-style:normal;font-variant:normal;font-weight:700;font-size:3.96875px;font-family:Arial;fill:#000000;stroke-width:0.264583"
             id="tspan4709">20ns</tspan></tspan></text>
      <path
         style="fill:none;stroke:#808080;stroke-width:0.2335px;stroke-linecap:round;stroke-linejoin:round;stroke-miterlimit:4;stroke-dasharray:0.264583, 0.264583;stroke-dashoffset:0;stroke-opacity:1"
         d="m 128.38675,224.7353 v -121.42"
         id="path4715" />
      <path
         style="fill:none;stroke:#000000;stroke-width:0.2335px;stroke-linecap:round;stroke-linejoin:round;stroke-miterlimit:4;stroke-dasharray:none;stroke-opacity:1"
         d="m 146.59975,224.7353 v 2.1015"
         id="path4717" />
      <text
         xml:space="preserve"
         style="font-style:normal;font-variant:normal;font-weight:700;font-size:3.96875px;line-height:125%;font-family:Arial;text-align:start;letter-spacing:0px;word-spacing:0px;text-anchor:start;fill:#000000;fill-opacity:1;stroke:none;stroke-width:0.264583"
         x="141.75679"
         y="230.42961"
         id="text4723"><tspan
           sodipodi:role="line"
           x="141.75679"
           y="230.42961"
           id="tspan4721"
           style="stroke-width:0.264583"><tspan
             dx="0"
             dy="0"
             style="font-style:normal;font-variant:normal;font-weight:700;font-size:3.96875px;font-family:Arial;fill:#000000;stroke-width:0.264583"
             id="tspan4719">22ns</tspan></tspan></text>
      <path
         style="fill:none;stroke:#808080;stroke-width:0.2335px;stroke-linecap:round;stroke-linejoin:round;stroke-miterlimit:4;stroke-dasharray:0.264583, 0.264583;stroke-dashoffset:0;stroke-opacity:1"
         d="m 146.59975,224.7353 v -121.42"
         id="path4725" />
      <path
         style="fill:none;stroke:#000000;stroke-width:0.2335px;stroke-linecap:round;stroke-linejoin:round;stroke-miterlimit:4;stroke-dasharray:none;stroke-opacity:1"
         d="m 164.81275,224.7353 v 2.1015"
         id="path4727" />
      <text
         xml:space="preserve"
         style="font-style:normal;font-variant:normal;font-weight:700;font-size:3.96875px;line-height:125%;font-family:Arial;text-align:start;letter-spacing:0px;word-spacing:0px;text-anchor:start;fill:#000000;fill-opacity:1;stroke:none;stroke-width:0.264583"
         x="159.96979"
         y="230.42961"
         id="text4733"><tspan
           sodipodi:role="line"
           x="159.96979"
           y="230.42961"
           id="tspan4731"
           style="stroke-width:0.264583"><tspan
             dx="0"
             dy="0"
             style="font-style:normal;font-variant:normal;font-weight:700;font-size:3.96875px;font-family:Arial;fill:#000000;stroke-width:0.264583"
             id="tspan4729">24ns</tspan></tspan></text>
      <path
         style="fill:none;stroke:#808080;stroke-width:0.2335px;stroke-linecap:round;stroke-linejoin:round;stroke-miterlimit:4;stroke-dasharray:0.264583, 0.264583;stroke-dashoffset:0;stroke-opacity:1"
         d="m 164.81275,224.7353 v -121.42"
         id="path4735" />
      <path
         style="fill:none;stroke:#000000;stroke-width:0.2335px;stroke-linecap:round;stroke-linejoin:round;stroke-miterlimit:4;stroke-dasharray:none;stroke-opacity:1"
         d="m 183.02575,224.7353 v 2.1015"
         id="path4737" />
      <text
         xml:space="preserve"
         style="font-style:normal;font-variant:normal;font-weight:700;font-size:3.96875px;line-height:125%;font-family:Arial;text-align:start;letter-spacing:0px;word-spacing:0px;text-anchor:start;fill:#000000;fill-opacity:1;stroke:none;stroke-width:0.264583"
         x="178.18279"
         y="230.42961"
         id="text4743"><tspan
           sodipodi:role="line"
           x="178.18279"
           y="230.42961"
           id="tspan4741"
           style="stroke-width:0.264583"><tspan
             dx="0"
             dy="0"
             style="font-style:normal;font-variant:normal;font-weight:700;font-size:3.96875px;font-family:Arial;fill:#000000;stroke-width:0.264583"
             id="tspan4739">26ns</tspan></tspan></text>
      <path
         style="fill:none;stroke:#808080;stroke-width:0.2335px;stroke-linecap:round;stroke-linejoin:round;stroke-miterlimit:4;stroke-dasharray:0.264583, 0.264583;stroke-dashoffset:0;stroke-opacity:1"
         d="m 183.02575,224.7353 v -121.42"
         id="path4745" />
      <path
         style="fill:none;stroke:#000000;stroke-width:0.2335px;stroke-linecap:round;stroke-linejoin:round;stroke-miterlimit:4;stroke-dasharray:none;stroke-opacity:1"
         d="m 201.23874,224.7353 v 2.1015"
         id="path4747" />
      <text
         xml:space="preserve"
         style="font-style:normal;font-variant:normal;font-weight:700;font-size:3.96875px;line-height:125%;font-family:Arial;text-align:start;letter-spacing:0px;word-spacing:0px;text-anchor:start;fill:#000000;fill-opacity:1;stroke:none;stroke-width:0.264583"
         x="196.3958"
         y="230.42961"
         id="text4753"><tspan
           sodipodi:role="line"
           x="196.3958"
           y="230.42961"
           id="tspan4751"
           style="stroke-width:0.264583"><tspan
             dx="0"
             dy="0"
             style="font-style:normal;font-variant:normal;font-weight:700;font-size:3.96875px;font-family:Arial;fill:#000000;stroke-width:0.264583"
             id="tspan4749">28ns</tspan></tspan></text>
      <path
         style="fill:none;stroke:#808080;stroke-width:0.2335px;stroke-linecap:round;stroke-linejoin:round;stroke-miterlimit:4;stroke-dasharray:0.264583, 0.264583;stroke-dashoffset:0;stroke-opacity:1"
         d="m 201.23874,224.7353 v -121.42"
         id="path4755" />
      <text
         xml:space="preserve"
         style="font-style:normal;font-variant:normal;font-weight:700;font-size:3.96875px;line-height:125%;font-family:Arial;text-align:start;letter-spacing:0px;word-spacing:0px;text-anchor:start;fill:#000000;fill-opacity:1;stroke:none;stroke-width:0.264583"
         x="-64.008972"
         y="226.22661"
         id="text4761"><tspan
           sodipodi:role="line"
           x="-64.008972"
           y="226.22661"
           id="tspan4759"
           style="stroke-width:0.264583"><tspan
             dx="0"
             dy="0"
             style="font-style:normal;font-variant:normal;font-weight:700;font-size:3.96875px;font-family:Arial;fill:#000000;stroke-width:0.264583"
             id="tspan4757">0.0V</tspan></tspan></text>
      <path
         style="fill:none;stroke:#000000;stroke-width:0.2335px;stroke-linecap:round;stroke-linejoin:round;stroke-miterlimit:4;stroke-dasharray:none;stroke-opacity:1"
         d="m -53.743244,224.7353 h -2.1015"
         id="path4763" />
      <text
         xml:space="preserve"
         style="font-style:normal;font-variant:normal;font-weight:700;font-size:3.96875px;line-height:125%;font-family:Arial;text-align:start;letter-spacing:0px;word-spacing:0px;text-anchor:start;fill:#000000;fill-opacity:1;stroke:none;stroke-width:0.264583"
         x="-64.008972"
         y="214.08461"
         id="text4769"><tspan
           sodipodi:role="line"
           x="-64.008972"
           y="214.08461"
           id="tspan4767"
           style="stroke-width:0.264583"><tspan
             dx="0"
             dy="0"
             style="font-style:normal;font-variant:normal;font-weight:700;font-size:3.96875px;font-family:Arial;fill:#000000;stroke-width:0.264583"
             id="tspan4765">0.1V</tspan></tspan></text>
      <path
         style="fill:none;stroke:#000000;stroke-width:0.2335px;stroke-linecap:round;stroke-linejoin:round;stroke-miterlimit:4;stroke-dasharray:none;stroke-opacity:1"
         d="m -53.743244,212.5933 h -2.1015"
         id="path4771" />
      <path
         style="fill:none;stroke:#808080;stroke-width:0.2335px;stroke-linecap:round;stroke-linejoin:round;stroke-miterlimit:4;stroke-dasharray:0.264583, 0.264583;stroke-dashoffset:0;stroke-opacity:1"
         d="M -53.743244,212.5933 H 219.45176"
         id="path4773" />
      <text
         xml:space="preserve"
         style="font-style:normal;font-variant:normal;font-weight:700;font-size:3.96875px;line-height:125%;font-family:Arial;text-align:start;letter-spacing:0px;word-spacing:0px;text-anchor:start;fill:#000000;fill-opacity:1;stroke:none;stroke-width:0.264583"
         x="-64.008972"
         y="201.9426"
         id="text4779"><tspan
           sodipodi:role="line"
           x="-64.008972"
           y="201.9426"
           id="tspan4777"
           style="stroke-width:0.264583"><tspan
             dx="0"
             dy="0"
             style="font-style:normal;font-variant:normal;font-weight:700;font-size:3.96875px;font-family:Arial;fill:#000000;stroke-width:0.264583"
             id="tspan4775">0.2V</tspan></tspan></text>
      <path
         style="fill:none;stroke:#000000;stroke-width:0.2335px;stroke-linecap:round;stroke-linejoin:round;stroke-miterlimit:4;stroke-dasharray:none;stroke-opacity:1"
         d="m -53.743244,200.4513 h -2.1015"
         id="path4781" />
      <path
         style="fill:none;stroke:#808080;stroke-width:0.2335px;stroke-linecap:round;stroke-linejoin:round;stroke-miterlimit:4;stroke-dasharray:0.264583, 0.264583;stroke-dashoffset:0;stroke-opacity:1"
         d="M -53.743244,200.4513 H 219.45176"
         id="path4783" />
      <text
         xml:space="preserve"
         style="font-style:normal;font-variant:normal;font-weight:700;font-size:3.96875px;line-height:125%;font-family:Arial;text-align:start;letter-spacing:0px;word-spacing:0px;text-anchor:start;fill:#000000;fill-opacity:1;stroke:none;stroke-width:0.264583"
         x="-64.008972"
         y="189.8006"
         id="text4789"><tspan
           sodipodi:role="line"
           x="-64.008972"
           y="189.8006"
           id="tspan4787"
           style="stroke-width:0.264583"><tspan
             dx="0"
             dy="0"
             style="font-style:normal;font-variant:normal;font-weight:700;font-size:3.96875px;font-family:Arial;fill:#000000;stroke-width:0.264583"
             id="tspan4785">0.3V</tspan></tspan></text>
      <path
         style="fill:none;stroke:#000000;stroke-width:0.2335px;stroke-linecap:round;stroke-linejoin:round;stroke-miterlimit:4;stroke-dasharray:none;stroke-opacity:1"
         d="m -53.743244,188.3093 h -2.1015"
         id="path4791" />
      <path
         style="fill:none;stroke:#808080;stroke-width:0.2335px;stroke-linecap:round;stroke-linejoin:round;stroke-miterlimit:4;stroke-dasharray:0.264583, 0.264583;stroke-dashoffset:0;stroke-opacity:1"
         d="M -53.743244,188.3093 H 219.45176"
         id="path4793" />
      <text
         xml:space="preserve"
         style="font-style:normal;font-variant:normal;font-weight:700;font-size:3.96875px;line-height:125%;font-family:Arial;text-align:start;letter-spacing:0px;word-spacing:0px;text-anchor:start;fill:#000000;fill-opacity:1;stroke:none;stroke-width:0.264583"
         x="-64.008972"
         y="177.6586"
         id="text4799"><tspan
           sodipodi:role="line"
           x="-64.008972"
           y="177.6586"
           id="tspan4797"
           style="stroke-width:0.264583"><tspan
             dx="0"
             dy="0"
             style="font-style:normal;font-variant:normal;font-weight:700;font-size:3.96875px;font-family:Arial;fill:#000000;stroke-width:0.264583"
             id="tspan4795">0.4V</tspan></tspan></text>
      <path
         style="fill:none;stroke:#000000;stroke-width:0.2335px;stroke-linecap:round;stroke-linejoin:round;stroke-miterlimit:4;stroke-dasharray:none;stroke-opacity:1"
         d="m -53.743244,176.1673 h -2.1015"
         id="path4801" />
      <path
         style="fill:none;stroke:#808080;stroke-width:0.2335px;stroke-linecap:round;stroke-linejoin:round;stroke-miterlimit:4;stroke-dasharray:0.264583, 0.264583;stroke-dashoffset:0;stroke-opacity:1"
         d="M -53.743244,176.1673 H 219.45176"
         id="path4803" />
      <text
         xml:space="preserve"
         style="font-style:normal;font-variant:normal;font-weight:700;font-size:3.96875px;line-height:125%;font-family:Arial;text-align:start;letter-spacing:0px;word-spacing:0px;text-anchor:start;fill:#000000;fill-opacity:1;stroke:none;stroke-width:0.264583"
         x="-64.008972"
         y="165.5166"
         id="text4809"><tspan
           sodipodi:role="line"
           x="-64.008972"
           y="165.5166"
           id="tspan4807"
           style="stroke-width:0.264583"><tspan
             dx="0"
             dy="0"
             style="font-style:normal;font-variant:normal;font-weight:700;font-size:3.96875px;font-family:Arial;fill:#000000;stroke-width:0.264583"
             id="tspan4805">0.5V</tspan></tspan></text>
      <path
         style="fill:none;stroke:#000000;stroke-width:0.2335px;stroke-linecap:round;stroke-linejoin:round;stroke-miterlimit:4;stroke-dasharray:none;stroke-opacity:1"
         d="m -53.743244,164.0253 h -2.1015"
         id="path4811" />
      <path
         style="fill:none;stroke:#808080;stroke-width:0.2335px;stroke-linecap:round;stroke-linejoin:round;stroke-miterlimit:4;stroke-dasharray:0.264583, 0.264583;stroke-dashoffset:0;stroke-opacity:1"
         d="M -53.743244,164.0253 H 219.45176"
         id="path4813" />
      <text
         xml:space="preserve"
         style="font-style:normal;font-variant:normal;font-weight:700;font-size:3.96875px;line-height:125%;font-family:Arial;text-align:start;letter-spacing:0px;word-spacing:0px;text-anchor:start;fill:#000000;fill-opacity:1;stroke:none;stroke-width:0.264583"
         x="-64.008972"
         y="153.3746"
         id="text4819"><tspan
           sodipodi:role="line"
           x="-64.008972"
           y="153.3746"
           id="tspan4817"
           style="stroke-width:0.264583"><tspan
             dx="0"
             dy="0"
             style="font-style:normal;font-variant:normal;font-weight:700;font-size:3.96875px;font-family:Arial;fill:#000000;stroke-width:0.264583"
             id="tspan4815">0.6V</tspan></tspan></text>
      <path
         style="fill:none;stroke:#000000;stroke-width:0.2335px;stroke-linecap:round;stroke-linejoin:round;stroke-miterlimit:4;stroke-dasharray:none;stroke-opacity:1"
         d="m -53.743244,151.8833 h -2.1015"
         id="path4821" />
      <path
         style="fill:none;stroke:#808080;stroke-width:0.2335px;stroke-linecap:round;stroke-linejoin:round;stroke-miterlimit:4;stroke-dasharray:0.264583, 0.264583;stroke-dashoffset:0;stroke-opacity:1"
         d="M -53.743244,151.8833 H 219.45176"
         id="path4823" />
      <text
         xml:space="preserve"
         style="font-style:normal;font-variant:normal;font-weight:700;font-size:3.96875px;line-height:125%;font-family:Arial;text-align:start;letter-spacing:0px;word-spacing:0px;text-anchor:start;fill:#000000;fill-opacity:1;stroke:none;stroke-width:0.264583"
         x="-64.008972"
         y="141.2326"
         id="text4829"><tspan
           sodipodi:role="line"
           x="-64.008972"
           y="141.2326"
           id="tspan4827"
           style="stroke-width:0.264583"><tspan
             dx="0"
             dy="0"
             style="font-style:normal;font-variant:normal;font-weight:700;font-size:3.96875px;font-family:Arial;fill:#000000;stroke-width:0.264583"
             id="tspan4825">0.7V</tspan></tspan></text>
      <path
         style="fill:none;stroke:#000000;stroke-width:0.2335px;stroke-linecap:round;stroke-linejoin:round;stroke-miterlimit:4;stroke-dasharray:none;stroke-opacity:1"
         d="m -53.743244,139.7413 h -2.1015"
         id="path4831" />
      <path
         style="fill:none;stroke:#808080;stroke-width:0.2335px;stroke-linecap:round;stroke-linejoin:round;stroke-miterlimit:4;stroke-dasharray:0.264583, 0.264583;stroke-dashoffset:0;stroke-opacity:1"
         d="M -53.743244,139.7413 H 219.45176"
         id="path4833" />
      <text
         xml:space="preserve"
         style="font-style:normal;font-variant:normal;font-weight:700;font-size:3.96875px;line-height:125%;font-family:Arial;text-align:start;letter-spacing:0px;word-spacing:0px;text-anchor:start;fill:#000000;fill-opacity:1;stroke:none;stroke-width:0.264583"
         x="-64.008972"
         y="129.09061"
         id="text4839"><tspan
           sodipodi:role="line"
           x="-64.008972"
           y="129.09061"
           id="tspan4837"
           style="stroke-width:0.264583"><tspan
             dx="0"
             dy="0"
             style="font-style:normal;font-variant:normal;font-weight:700;font-size:3.96875px;font-family:Arial;fill:#000000;stroke-width:0.264583"
             id="tspan4835">0.8V</tspan></tspan></text>
      <path
         style="fill:none;stroke:#000000;stroke-width:0.2335px;stroke-linecap:round;stroke-linejoin:round;stroke-miterlimit:4;stroke-dasharray:none;stroke-opacity:1"
         d="m -53.743244,127.5993 h -2.1015"
         id="path4841" />
      <path
         style="fill:none;stroke:#808080;stroke-width:0.2335px;stroke-linecap:round;stroke-linejoin:round;stroke-miterlimit:4;stroke-dasharray:0.264583, 0.264583;stroke-dashoffset:0;stroke-opacity:1"
         d="M -53.743244,127.5993 H 219.45176"
         id="path4843" />
      <text
         xml:space="preserve"
         style="font-style:normal;font-variant:normal;font-weight:700;font-size:3.96875px;line-height:125%;font-family:Arial;text-align:start;letter-spacing:0px;word-spacing:0px;text-anchor:start;fill:#000000;fill-opacity:1;stroke:none;stroke-width:0.264583"
         x="-64.008972"
         y="116.9486"
         id="text4849"><tspan
           sodipodi:role="line"
           x="-64.008972"
           y="116.9486"
           id="tspan4847"
           style="stroke-width:0.264583"><tspan
             dx="0"
             dy="0"
             style="font-style:normal;font-variant:normal;font-weight:700;font-size:3.96875px;font-family:Arial;fill:#000000;stroke-width:0.264583"
             id="tspan4845">0.9V</tspan></tspan></text>
      <path
         style="fill:none;stroke:#000000;stroke-width:0.2335px;stroke-linecap:round;stroke-linejoin:round;stroke-miterlimit:4;stroke-dasharray:none;stroke-opacity:1"
         d="m -53.743244,115.4573 h -2.1015"
         id="path4851" />
      <path
         style="fill:none;stroke:#808080;stroke-width:0.2335px;stroke-linecap:round;stroke-linejoin:round;stroke-miterlimit:4;stroke-dasharray:0.264583, 0.264583;stroke-dashoffset:0;stroke-opacity:1"
         d="M -53.743244,115.4573 H 219.45176"
         id="path4853" />
      <text
         xml:space="preserve"
         style="font-style:normal;font-variant:normal;font-weight:700;font-size:3.96875px;line-height:125%;font-family:Arial;text-align:start;letter-spacing:0px;word-spacing:0px;text-anchor:start;fill:#000000;fill-opacity:1;stroke:none;stroke-width:0.264583"
         x="-64.008972"
         y="104.8066"
         id="text4859"><tspan
           sodipodi:role="line"
           x="-64.008972"
           y="104.8066"
           id="tspan4857"
           style="stroke-width:0.264583"><tspan
             dx="0"
             dy="0"
             style="font-style:normal;font-variant:normal;font-weight:700;font-size:3.96875px;font-family:Arial;fill:#000000;stroke-width:0.264583"
             id="tspan4855">1.0V</tspan></tspan></text>
      <path
         style="fill:none;stroke:#000000;stroke-width:0.2335px;stroke-linecap:round;stroke-linejoin:round;stroke-miterlimit:4;stroke-dasharray:none;stroke-opacity:1"
         d="m -53.743244,103.3153 h -2.1015"
         id="path4861" />
      <path
         style="fill:none;stroke:#000000;stroke-width:0.2335px;stroke-linecap:round;stroke-linejoin:round;stroke-miterlimit:4;stroke-dasharray:none;stroke-opacity:1"
         d="M -53.743244,103.3153 H 219.45176 v 121.42 H -53.743244 v -121.42"
         id="path4863" />
      <text
         xml:space="preserve"
         style="font-style:normal;font-variant:normal;font-weight:700;font-size:3.96875px;line-height:125%;font-family:Arial;text-align:start;letter-spacing:0px;word-spacing:0px;text-anchor:start;fill:#000000;fill-opacity:1;stroke:none;stroke-width:0.264583"
         x="9.5863371"
         y="102.00461"
         id="text4869"><tspan
           sodipodi:role="line"
           x="9.5863371"
           y="102.00461"
           id="tspan4867"
           style="stroke-width:0.264583"><tspan
             dx="0"
             dy="0"
             style="font-style:normal;font-variant:normal;font-weight:700;font-size:3.96875px;font-family:Arial;fill:#000000;stroke-width:0.264583"
             id="tspan4865">V(v1)</tspan></tspan></text>
      <path
         style="fill:none;stroke:#000000;stroke-width:0.234;stroke-linecap:round;stroke-linejoin:round;stroke-miterlimit:4;stroke-dasharray:0.234, 0.468;stroke-dashoffset:0;stroke-opacity:1"
         d="m -53.743244,224.7353 h 18.212999 v -2.802 -2.5685 l 0.2335,-5.604 v -10.9745 l 0.2335,-20.3145 0.467,-20.3145 0.233501,-20.3145 0.2335,-18.213 0.2335,-20.3145 v 6.071 l 0.2335,8.1725 0.2335,16.345 0.2335,20.3145 0.2335,20.3145 0.2335,20.3145 0.2335,10.741 v 6.3045 5.8375 l 0.2335,7.005 h 1.867998 1.868001 1.868001 1.868 1.867998 1.868001 1.868 1.868001 1.867998 1.868001 1.868 1.868001 1.867998 1.8680007 1.8680006 1.8680007 1.86799797 1.86800063 1.8680007 1.8680006 1.867998 1.8680006 1.8680005 1.868001 1.867998 1.868 1.868001 1.868001 1.867998 1.868 1.868001 1.868001 1.867998 1.868 1.868001 1.868001 1.867998 1.868 1.868001 1.868001 1.867998 1.868 1.868001 1.868 1.867998 1.868001 1.868001 1.868 1.867998 1.868001 1.868001 1.868 1.867998 1.868001 1.868001 1.868 1.867998 1.868001 1.868001 1.868 1.867998 1.868001 1.868 1.868001 1.867998 1.868001 1.868 1.868001 1.867998 1.868001 1.867996 1.868 1.868 2.1015 2.1015 2.10151 2.33499 2.1015 2.1015 2.1015 2.1015 2.335 2.5685 2.335 2.335 2.802 2.5685 3.0355 2.802 3.269 3.5025 3.736 4.203 4.9035 5.604 6.7715 9.1065 13.076 10.741 12.60901 m -273.195004,0 h 18.212999 l 0.2335,-1.1675 v -1.1675 l 0.2335,-2.1015 0.467,-1.868 0.233501,-2.1015 0.2335,-2.1015 0.2335,-2.1015 0.2335,-1.868 0.2335,-2.1015 0.2335,-2.1015 0.467,-1.868 0.2335,-2.1015 0.2335,-2.1015 0.2335,-1.868 0.2335,-2.1015 0.233501,-2.1015 0.2335,-2.1015 0.7005,-3.9695 0.466997,-3.9695 0.467001,-4.203 0.7005,-3.9695 0.7005,-6.071 0.7005,-6.071 1.167501,-8.1725 1.1675,-8.1725 1.1675,-10.274 1.634498,-12.142 1.868001,-14.2435 0.934,-7.2385 0.934001,7.005 1.1675,8.1725 0.934,8.1725 0.934001,6.071 0.700497,6.071 0.934001,6.071 0.467,4.203 0.467,3.9695 0.2335,2.1015 0.467,2.1015 0.2335,1.868 0.2335,2.1015 0.2335,2.1015 0.2335,2.1015 0.233501,1.868 0.7005,4.203 0.467,3.9695 0.7005002,6.071 0.9340003,6.071 0.9339977,8.1725 1.4010005,10.274 1.4010005,10.0405 1.1675004,8.6395 h 1.8680006 1.86799801 1.86800069 1.8680006 1.8680006 1.867998 1.8680007 1.8680002 1.868001 1.867998 1.868001 1.868 1.868001 1.867998 1.868001 1.868 1.868001 1.867998 1.868001 1.868 1.868001 1.867998 1.868 1.868001 1.868001 1.867998 1.868 1.868001 1.868001 1.867998 1.868 1.868001 1.868001 1.867998 1.868 1.868001 1.868001 1.867998 1.868 1.868001 1.868 1.867998 1.868001 1.868001 1.868 1.867998 1.868001 1.868001 1.868 1.867998 1.868001 1.868001 1.868 1.867998 1.868001 1.867996 1.86801 1.86799 1.868 1.868 1.86801 1.86799 1.868 1.868 1.868 1.868 1.868 1.868 1.868 1.868 1.868 1.868 1.868 1.868 1.868 1.868 1.868 1.868 1.868 1.868 1.868 1.868 1.868 1.868 2.1015 2.1015 2.1015 2.1015 2.1015 2.1015 2.335 2.1015 2.335 2.335 2.5685 2.335 2.5685 2.802 2.802 3.0355 3.269 3.269 4.203 4.20301 3.736 5.60398 3.96952 m -273.195004,0 h 18.212999 l 0.467,-0.7005 0.467,-0.7005 0.233501,-0.467 0.2335,-0.467 0.2335,-0.467 0.2335,-0.467 0.467,-0.467 0.2335,-0.467 0.467,-0.7005 0.2335,-0.467 0.2335,-0.467 0.700501,-0.934 0.467,-0.7005 0.466997,-0.934 0.467,-0.934 0.934001,-1.1675 0.7005,-1.401 0.934,-1.401 0.934001,-1.6345 1.1675,-1.868 1.401001,-2.1015 1.400997,-2.5685 1.868001,-3.0355 2.568501,-3.9695 2.801998,-4.67 3.736001,-6.071 4.6699994,-7.472 5.604002,-9.1065 7.2384998,-11.9085 9.8069978,-16.1115 15.411,-25.218 7.7055,-12.3755 1.167501,1.868 1.401,2.335 0.934001,1.6345 1.1675,1.868 0.933998,1.6345 0.934,1.401 0.7005,1.1675 0.7005,0.934 0.467001,0.934 0.467,0.7005 0.2335,0.467 0.2335,0.467 0.467,0.467 0.2335,0.467 0.2335,0.467 0.2335,0.467 0.700501,1.1675 0.467,0.467 0.2335,0.467 0.2335,0.467 0.233497,0.467 0.2335,0.467 0.467001,0.7005 0.467,0.467 0.467,0.934 0.467,0.934 0.934,1.1675 0.700501,1.401 1.1675,1.6345 1.1675,2.335 1.634498,2.5685 1.868001,3.0355 2.101501,3.5025 2.568501,3.736 2.568498,4.4365 3.269001,5.137 3.969499,6.538 4.670001,7.939 5.8375,9.5735 7.939,12.609 11.207995,18.213 8.406,13.7765 h 1.868 1.868 1.868 1.868 1.868 1.868 1.868 1.868 1.868 1.868 1.868 1.868 1.868 1.868 1.868 1.868 1.868 1.868 1.868 1.868 1.868 1.868 1.868 1.868 1.868 1.868 1.868 1.868 1.868 1.868 1.868 1.868 1.868 1.868 1.868 1.868 1.868 1.868 1.868 1.868 1.868 1.868 1.868 1.868 1.868 1.868 1.86799 1.86801 1.86801 1.86799 1.86801 1.86798 2.10151 1.86801 1.86799 1.86801 1.1675"
         id="path4871" />
      <text
         xml:space="preserve"
         style="font-style:normal;font-variant:normal;font-weight:700;font-size:3.96875px;line-height:125%;font-family:Arial;text-align:start;letter-spacing:0px;word-spacing:0px;text-anchor:start;fill:#1100ff;fill-opacity:1;stroke:none;stroke-width:0.264583"
         x="142.65594"
         y="102.00461"
         id="text4877"><tspan
           sodipodi:role="line"
           x="142.65594"
           y="102.00461"
           id="tspan4875"
           style="fill:#1100ff;fill-opacity:1;stroke-width:0.264583"><tspan
             dx="0"
             dy="0"
             style="font-style:normal;font-variant:normal;font-weight:700;font-size:3.96875px;font-family:Arial;fill:#1100ff;fill-opacity:1;stroke-width:0.264583"
             id="tspan4873">V(scope)</tspan></tspan></text>
      <path
         style="fill:none;stroke:#1100ff;stroke-width:0.5;stroke-linecap:round;stroke-linejoin:round;stroke-miterlimit:4;stroke-dasharray:none;stroke-opacity:1"
         d="m -53.743244,224.7353 h 18.212999 l 0.467,-0.934 0.467,-0.934 0.233501,-1.1675 0.2335,-1.401 0.2335,-1.868 v -0.7005 l 0.2335,-0.7005 0.2335,-1.1675 0.2335,-1.401 0.2335,-0.934 0.2335,-0.467 0.467,-0.2335 1.867998,1.6345 1.868001,1.1675 1.868001,1.1675 1.868,0.934 1.867998,0.934 1.868001,0.7005 1.868,0.7005 1.868001,0.467 1.867998,0.467 1.868001,0.467 1.868,0.467 1.868001,0.2335 1.867998,0.467 1.8680007,0.2335 1.8680006,0.2335 1.8680007,0.2335 1.86799797,0.2335 H 1.3627546 l 1.8680007,0.2335 h 1.8680006 l 1.867998,0.2335 h 1.8680006 1.8680005 l 1.868001,0.2335 h 1.867998 1.868 l 1.868001,0.2335 h 1.868001 1.867998 1.868 1.868001 1.868001 1.867998 1.868 1.868001 l 1.868001,0.2335 h 1.867998 1.868 1.868001 1.868001 1.867998 1.868 1.868001 1.868 1.867998 1.868001 1.868001 1.868 1.867998 1.868001 1.868001 1.868 1.867998 1.868001 1.868001 1.868 1.867998 1.868001 1.868001 1.868 1.867998 1.868001 1.868 1.868001 1.867998 1.868001 1.868 1.868001 1.867998 1.868001 1.867996 1.868 1.868 2.1015 2.1015 2.10151 2.33499 2.1015 2.1015 2.1015 2.1015 2.335 2.5685 2.335 2.335 2.802 2.5685 3.0355 2.802 3.269 3.5025 3.736 4.203 4.9035 5.604 6.7715 9.1065 13.076 10.741 12.60901 m -273.195004,0 h 18.212999 0.467 l 0.467,-0.2335 0.467001,-0.2335 0.467,-0.467 0.467,-0.467 0.467,-0.467 0.467,-0.7005 0.2335,-0.467 0.2335,-0.467 0.233501,-0.467 0.2335,-0.467 0.7005,-0.934 0.466997,-1.401 0.467001,-1.1675 0.7005,-1.401 0.7005,-2.335 0.7005,-2.335 1.167501,-3.736 1.1675,-3.736 1.1675,-5.3705 1.634498,-7.005 1.868001,-8.6395 0.934,-4.67 0.934001,-4.4365 1.1675,-3.9695 0.934,-3.269 0.934001,-1.868 0.700497,-1.401 0.934001,-0.934 0.467,-0.467 0.467,-0.467 h 0.7005 0.467 0.467 l 0.934001,0.467 0.467,0.467 0.7005002,0.934 0.9340003,1.401 0.9339977,1.868 1.4010005,3.269 1.4010005,3.736 1.1675004,3.5025 1.8680006,6.538 1.86799801,5.137 1.86800069,4.4365 1.8680006,3.9695 1.8680006,3.5025 1.867998,3.0355 1.8680007,2.5685 1.8680002,2.335 1.868001,1.868 1.867998,1.868 1.868001,1.6345 1.868,1.401 1.868001,1.1675 1.867998,1.1675 1.868001,0.934 1.868,0.7005 1.868001,0.934 1.867998,0.467 1.868001,0.7005 1.868,0.467 1.868001,0.467 1.867998,0.2335 1.868,0.467 1.868001,0.2335 1.868001,0.2335 1.867998,0.2335 1.868,0.2335 1.868001,0.2335 h 1.868001 l 1.867998,0.2335 h 1.868 l 1.868001,0.2335 h 1.868001 l 1.867998,0.2335 h 1.868 1.868001 1.868001 l 1.867998,0.2335 h 1.868 1.868001 1.868 1.867998 1.868001 1.868001 1.868 1.867998 l 1.868001,0.2335 h 1.868001 1.868 1.867998 1.868001 1.868001 1.868 1.867998 1.868001 1.867996 1.86801 1.86799 1.868 1.868 1.86801 1.86799 1.868 1.868 1.868 1.868 1.868 1.868 1.868 1.868 1.868 1.868 1.868 1.868 1.868 1.868 1.868 1.868 1.868 1.868 1.868 1.868 1.868 1.868 2.1015 2.1015 2.1015 2.1015 2.1015 2.1015 2.335 2.1015 2.335 2.335 2.5685 2.335 2.5685 2.802 2.802 3.0355 3.269 3.269 4.203 4.20301 3.736 5.60398 3.96952 m -273.195004,0 h 18.212999 0.467 0.467 0.467001 l 0.467,-0.2335 h 0.467 l 0.467,-0.2335 h 0.467 l 0.934001,-0.467 0.467,-0.2335 0.466997,-0.2335 0.467,-0.2335 0.934001,-0.467 0.7005,-0.467 0.934,-0.467 0.934001,-0.7005 1.1675,-0.934 1.401001,-1.1675 1.400997,-1.401 1.868001,-1.868 2.568501,-2.5685 2.801998,-3.5025 3.736001,-4.67 4.6699994,-6.071 5.604002,-7.939 7.2384998,-10.741 9.8069978,-15.1775 15.411,-24.284 7.7055,-12.142 1.167501,-1.868 1.401,-1.6345 0.934001,-0.934 1.1675,-0.934 0.933998,-0.7005 0.934,-0.2335 0.7005,-0.467 h 0.7005 l 0.467001,-0.2335 h 0.467 0.467 0.467 0.467 0.467 0.467001 0.467 l 0.467,0.2335 h 0.466997 l 0.467001,0.2335 0.467,0.2335 h 0.467 l 0.467,0.2335 0.934,0.467 0.700501,0.467 1.1675,0.7005 1.1675,0.7005 1.634498,1.401 1.868001,1.6345 2.101501,1.868 2.568501,2.5685 2.568498,3.0355 3.269001,3.9695 3.969499,5.3705 4.670001,6.538 5.8375,8.6395 7.939,11.675 11.207995,17.279 8.406,13.3095 1.868,2.802 1.868,2.5685 1.868,2.1015 1.868,1.868 1.868,1.6345 1.868,1.401 1.868,1.1675 1.868,1.1675 1.868,0.934 1.868,0.934 1.868,0.7005 1.868,0.7005 1.868,0.467 1.868,0.467 1.868,0.467 1.868,0.467 1.868,0.2335 1.868,0.467 1.868,0.2335 1.868,0.2335 1.868,0.2335 1.868,0.2335 h 1.868 l 1.868,0.2335 h 1.868 l 1.868,0.2335 h 1.868 1.868 l 1.868,0.2335 h 1.868 1.868 l 1.868,0.2335 h 1.868 1.868 1.868 1.868 1.868 1.868 1.868 1.868 l 1.868,0.2335 h 1.868 1.868 1.868 1.868 1.868 1.86799 1.86801 1.86801 1.86799 1.86801 1.86798 2.10151 1.86801 1.86799 1.86801 1.1675"
         id="path4879" />
      <text
         xml:space="preserve"
         style="font-style:normal;font-variant:normal;font-weight:700;font-size:3.96875px;line-height:125%;font-family:Arial;text-align:start;letter-spacing:0px;word-spacing:0px;text-anchor:start;fill:#000000;fill-opacity:1;stroke:none;stroke-width:0.264583"
         x="-48.606243"
         y="137.7301"
         id="text4885"><tspan
           sodipodi:role="line"
           x="-48.606243"
           y="137.7301"
           id="tspan4883"
           style="stroke-width:0.264583"><tspan
             dx="0"
             dy="0"
             style="font-style:normal;font-variant:normal;font-weight:700;font-size:3.96875px;font-family:Arial;fill:#000000;stroke-width:0.264583"
             id="tspan4881">0.175ns</tspan></tspan></text>
      <text
         xml:space="preserve"
         style="font-style:normal;font-variant:normal;font-weight:700;font-size:3.96875px;line-height:125%;font-family:Arial;text-align:start;letter-spacing:0px;word-spacing:0px;text-anchor:start;fill:#000000;fill-opacity:1;stroke:none;stroke-width:0.264583"
         x="-15.916245"
         y="120.21761"
         id="text4891"><tspan
           sodipodi:role="line"
           x="-15.916245"
           y="120.21761"
           id="tspan4889"
           style="stroke-width:0.264583"><tspan
             dx="0"
             dy="0"
             style="font-style:normal;font-variant:normal;font-weight:700;font-size:3.96875px;font-family:Arial;fill:#000000;stroke-width:0.264583"
             id="tspan4887">1.75ns</tspan></tspan></text>
      <text
         xml:space="preserve"
         style="font-style:normal;font-variant:normal;font-weight:700;font-size:3.96875px;line-height:125%;font-family:Arial;text-align:start;letter-spacing:0px;word-spacing:0px;text-anchor:start;fill:#000000;fill-opacity:1;stroke:none;stroke-width:0.264583"
         x="45.494251"
         y="110.8776"
         id="text4897"><tspan
           sodipodi:role="line"
           x="45.494251"
           y="110.8776"
           id="tspan4895"
           style="stroke-width:0.264583"><tspan
             dx="0"
             dy="0"
             style="font-style:normal;font-variant:normal;font-weight:700;font-size:3.96875px;font-family:Arial;fill:#000000;stroke-width:0.264583"
             id="tspan4893">8.75ns</tspan></tspan></text>
    </g>
  </g>
</svg>
