<svg id="Layer_1" data-name="Layer 1" xmlns="http://www.w3.org/2000/svg" viewBox="0 0 142.64 196.58"><defs><style>.cls-1{fill:none;stroke:#000;stroke-linecap:square;stroke-miterlimit:10;stroke-width:0.66px;}.cls-11,.cls-16,.cls-2,.cls-5{font-size:8.6px;font-family:Tahoma-Bold, Tahoma;font-weight:700;}.cls-3{letter-spacing:-0.07em;}.cls-4{letter-spacing:-0.13em;}.cls-10,.cls-5{letter-spacing:-0.1em;}.cls-6{letter-spacing:-0.08em;}.cls-7{letter-spacing:-0.1em;}.cls-8{letter-spacing:0em;}.cls-9{letter-spacing:-0.11em;}.cls-11{letter-spacing:-0.11em;}.cls-12{letter-spacing:0em;}.cls-13{letter-spacing:-0.1em;}.cls-14{letter-spacing:-0.12em;}.cls-15{letter-spacing:-0.06em;}.cls-16{letter-spacing:-0.12em;}.cls-17{letter-spacing:0em;}.cls-18{letter-spacing:-0.12em;}.cls-19{letter-spacing:-0.1em;}.cls-20{letter-spacing:-0.07em;}.cls-21{letter-spacing:-0.05em;}</style></defs><title>avalanche_pulse_gen_circuit</title><line class="cls-1" x1="74.63" y1="104.17" x2="72.64" y2="106.16"/><line class="cls-1" x1="72.64" y1="106.16" x2="72.64" y2="106.16"/><line class="cls-1" x1="81.25" y1="110.13" x2="74.63" y2="104.17"/><line class="cls-1" x1="74.63" y1="104.17" x2="74.63" y2="104.17"/><line class="cls-1" x1="81.25" y1="110.13" x2="72.64" y2="106.16"/><line class="cls-1" x1="72.64" y1="106.16" x2="72.64" y2="106.16"/><line class="cls-1" x1="73.97" y1="104.83" x2="66.02" y2="100.2"/><line class="cls-1" x1="66.02" y1="100.2" x2="66.02" y2="100.2"/><line class="cls-1" x1="66.02" y1="104.83" x2="66.02" y2="84.99"/><line class="cls-1" x1="66.02" y1="84.99" x2="66.02" y2="84.99"/><line class="cls-1" x1="66.02" y1="90.28" x2="81.25" y2="80.36"/><line class="cls-1" x1="81.25" y1="80.36" x2="81.25" y2="80.36"/><line class="cls-1" x1="66.02" y1="94.91" x2="61.39" y2="94.91"/><line class="cls-1" x1="61.39" y1="94.91" x2="61.39" y2="94.91"/><text class="cls-2" transform="translate(78.59 94.91)"><tspan class="cls-3">T</tspan><tspan x="4.64" y="0">2</tspan></text><line class="cls-1" x1="5.76" y1="116.08" x2="5.76" y2="125.34"/><line class="cls-1" x1="5.76" y1="125.34" x2="5.76" y2="125.34"/><line class="cls-1" x1="5.76" y1="114.09" x2="5.76" y2="104.83"/><line class="cls-1" x1="5.76" y1="104.83" x2="5.76" y2="104.83"/><line class="cls-1" x1="1.13" y1="114.09" x2="11.06" y2="114.09"/><line class="cls-1" x1="11.06" y1="114.09" x2="11.06" y2="114.09"/><line class="cls-1" x1="1.13" y1="116.08" x2="11.06" y2="116.08"/><line class="cls-1" x1="11.06" y1="116.08" x2="11.06" y2="116.08"/><text class="cls-2" transform="translate(8.42 112.11)"><tspan class="cls-4">C</tspan><tspan x="4.63" y="0">5</tspan></text><text class="cls-5" transform="translate(8.42 127.32)">2<tspan class="cls-6" x="4.63" y="0">.</tspan><tspan class="cls-7" x="6.62" y="0">2</tspan><tspan class="cls-8" x="11.26" y="0">p</tspan></text><line class="cls-1" x1="36.22" y1="167.67" x2="36.22" y2="170.31"/><line class="cls-1" x1="36.22" y1="170.31" x2="36.22" y2="170.31"/><line class="cls-1" x1="30.93" y1="165.02" x2="36.22" y2="167.67"/><line class="cls-1" x1="36.22" y1="167.67" x2="36.22" y2="167.67"/><line class="cls-1" x1="40.86" y1="160.39" x2="30.93" y2="165.02"/><line class="cls-1" x1="30.93" y1="165.02" x2="30.93" y2="165.02"/><line class="cls-1" x1="30.93" y1="155.1" x2="40.86" y2="160.39"/><line class="cls-1" x1="40.86" y1="160.39" x2="40.86" y2="160.39"/><line class="cls-1" x1="40.86" y1="150.47" x2="30.93" y2="155.1"/><line class="cls-1" x1="30.93" y1="155.1" x2="30.93" y2="155.1"/><line class="cls-1" x1="36.22" y1="145.18" x2="36.22" y2="147.83"/><line class="cls-1" x1="36.22" y1="147.83" x2="36.22" y2="147.83"/><line class="cls-1" x1="36.22" y1="147.83" x2="40.86" y2="150.47"/><line class="cls-1" x1="40.86" y1="150.47" x2="40.86" y2="150.47"/><text class="cls-2" transform="translate(42.18 157.09)"><tspan class="cls-9">R</tspan><tspan x="5.3" y="0">5</tspan></text><text class="cls-2" transform="translate(42.18 168.33)"><tspan class="cls-10">10</tspan><tspan x="9.26" y="0">k</tspan></text><line class="cls-1" x1="81.25" y1="167.67" x2="81.25" y2="170.31"/><line class="cls-1" x1="81.25" y1="170.31" x2="81.25" y2="170.31"/><line class="cls-1" x1="75.95" y1="165.02" x2="81.25" y2="167.67"/><line class="cls-1" x1="81.25" y1="167.67" x2="81.25" y2="167.67"/><line class="cls-1" x1="85.88" y1="160.39" x2="75.95" y2="165.02"/><line class="cls-1" x1="75.95" y1="165.02" x2="75.95" y2="165.02"/><line class="cls-1" x1="75.95" y1="155.1" x2="85.88" y2="160.39"/><line class="cls-1" x1="85.88" y1="160.39" x2="85.88" y2="160.39"/><line class="cls-1" x1="85.88" y1="150.47" x2="75.95" y2="155.1"/><line class="cls-1" x1="75.95" y1="155.1" x2="75.95" y2="155.1"/><line class="cls-1" x1="81.25" y1="145.18" x2="81.25" y2="147.83"/><line class="cls-1" x1="81.25" y1="147.83" x2="81.25" y2="147.83"/><line class="cls-1" x1="81.25" y1="147.83" x2="85.88" y2="150.47"/><line class="cls-1" x1="85.88" y1="150.47" x2="85.88" y2="150.47"/><text class="cls-11" transform="translate(87.2 157.09)">R<tspan class="cls-12" x="5.3" y="0">7</tspan></text><text class="cls-2" transform="translate(87.2 168.33)"><tspan class="cls-13">5</tspan><tspan x="4.63" y="0">1</tspan></text><line class="cls-1" x1="81.25" y1="42.66" x2="81.25" y2="45.31"/><line class="cls-1" x1="81.25" y1="45.31" x2="81.25" y2="45.31"/><line class="cls-1" x1="75.95" y1="40.02" x2="81.25" y2="42.66"/><line class="cls-1" x1="81.25" y1="42.66" x2="81.25" y2="42.66"/><line class="cls-1" x1="85.88" y1="35.39" x2="75.95" y2="40.02"/><line class="cls-1" x1="75.95" y1="40.02" x2="75.95" y2="40.02"/><line class="cls-1" x1="75.95" y1="30.09" x2="85.88" y2="35.39"/><line class="cls-1" x1="85.88" y1="35.39" x2="85.88" y2="35.39"/><line class="cls-1" x1="85.88" y1="24.8" x2="75.95" y2="30.09"/><line class="cls-1" x1="75.95" y1="30.09" x2="75.95" y2="30.09"/><line class="cls-1" x1="81.25" y1="20.17" x2="81.25" y2="22.82"/><line class="cls-1" x1="81.25" y1="22.82" x2="81.25" y2="22.82"/><line class="cls-1" x1="81.25" y1="22.82" x2="85.88" y2="24.8"/><line class="cls-1" x1="85.88" y1="24.8" x2="85.88" y2="24.8"/><text class="cls-11" transform="translate(87.2 32.08)">R<tspan class="cls-12" x="5.3" y="0">6</tspan></text><text class="cls-2" transform="translate(87.2 43.32)"><tspan class="cls-13">1</tspan><tspan class="cls-14" x="4.63" y="0">M</tspan><tspan class="cls-15" x="11.25" y="0">e</tspan><tspan x="15.89" y="0">g</tspan></text><line class="cls-1" x1="33.57" y1="21.5" x2="38.87" y2="21.5"/><line class="cls-1" x1="38.87" y1="21.5" x2="38.87" y2="21.5"/><line class="cls-1" x1="33.57" y1="34.06" x2="38.87" y2="34.06"/><line class="cls-1" x1="38.87" y1="34.06" x2="38.87" y2="34.06"/><line class="cls-1" x1="36.22" y1="18.85" x2="36.22" y2="24.14"/><line class="cls-1" x1="36.22" y1="24.14" x2="36.22" y2="24.14"/><line class="cls-1" x1="36.22" y1="40.02" x2="36.22" y2="37.37"/><line class="cls-1" x1="36.22" y1="37.37" x2="36.22" y2="37.37"/><line class="cls-1" x1="36.22" y1="14.88" x2="36.22" y2="17.53"/><line class="cls-1" x1="36.22" y1="17.53" x2="36.22" y2="17.53"/><path class="cls-1" d="M26.49,27.12a9.61,9.61,0,1,1,9.6,9.59,9.56,9.56,0,0,1-9.6-9.59Z" transform="translate(-0.2)"/><text class="cls-16" transform="translate(43.51 19.51)">U<tspan class="cls-17" x="5.29" y="0">+</tspan></text><text class="cls-2" transform="translate(43.51 44.65)"><tspan class="cls-10">7</tspan><tspan x="4.63" y="0">5</tspan></text><line class="cls-1" x1="0.47" y1="190.16" x2="11.72" y2="190.16"/><line class="cls-1" x1="11.72" y1="190.16" x2="11.72" y2="190.16"/><line class="cls-1" x1="11.72" y1="190.16" x2="5.76" y2="196.11"/><line class="cls-1" x1="5.76" y1="196.11" x2="5.76" y2="196.11"/><line class="cls-1" x1="5.76" y1="196.11" x2="0.47" y2="190.16"/><line class="cls-1" x1="0.47" y1="190.16" x2="0.47" y2="190.16"/><line class="cls-1" x1="30.26" y1="190.16" x2="41.52" y2="190.16"/><line class="cls-1" x1="41.52" y1="190.16" x2="41.52" y2="190.16"/><line class="cls-1" x1="41.52" y1="190.16" x2="36.22" y2="196.11"/><line class="cls-1" x1="36.22" y1="196.11" x2="36.22" y2="196.11"/><line class="cls-1" x1="36.22" y1="196.11" x2="30.26" y2="190.16"/><line class="cls-1" x1="30.26" y1="190.16" x2="30.26" y2="190.16"/><line class="cls-1" x1="75.29" y1="190.16" x2="86.55" y2="190.16"/><line class="cls-1" x1="86.55" y1="190.16" x2="86.55" y2="190.16"/><line class="cls-1" x1="86.55" y1="190.16" x2="81.25" y2="196.11"/><line class="cls-1" x1="81.25" y1="196.11" x2="81.25" y2="196.11"/><line class="cls-1" x1="81.25" y1="196.11" x2="75.29" y2="190.16"/><line class="cls-1" x1="75.29" y1="190.16" x2="75.29" y2="190.16"/><line class="cls-1" x1="116.34" y1="130.63" x2="138.2" y2="130.63"/><line class="cls-1" x1="138.2" y1="130.63" x2="142.17" y2="135.26"/><line class="cls-1" x1="142.17" y1="135.26" x2="138.2" y2="139.23"/><line class="cls-1" x1="138.2" y1="139.23" x2="116.34" y2="139.23"/><line class="cls-1" x1="116.34" y1="139.23" x2="116.34" y2="130.63"/><text class="cls-2" transform="translate(117.01 138.33)"><tspan class="cls-18">P</tspan><tspan class="cls-19" x="4.64" y="0">u</tspan><tspan class="cls-20" x="9.27" y="0">l</tspan><tspan class="cls-21" x="11.26" y="0">s</tspan><tspan x="15.23" y="0">e</tspan></text><line class="cls-1" x1="30.26" y1="49.94" x2="41.52" y2="49.94"/><line class="cls-1" x1="41.52" y1="49.94" x2="41.52" y2="49.94"/><line class="cls-1" x1="41.52" y1="49.94" x2="36.22" y2="55.89"/><line class="cls-1" x1="36.22" y1="55.89" x2="36.22" y2="55.89"/><line class="cls-1" x1="36.22" y1="55.89" x2="30.26" y2="49.94"/><line class="cls-1" x1="30.26" y1="49.94" x2="30.26" y2="49.94"/><line class="cls-1" x1="81.25" y1="0.33" x2="36.22" y2="0.33"/><line class="cls-1" x1="36.22" y1="0.33" x2="36.22" y2="0.33"/><line class="cls-1" x1="36.22" y1="14.88" x2="36.22" y2="0.33"/><line class="cls-1" x1="36.22" y1="0.33" x2="36.22" y2="0.33"/><line class="cls-1" x1="81.25" y1="20.17" x2="81.25" y2="0.33"/><line class="cls-1" x1="81.25" y1="0.33" x2="81.25" y2="0.33"/><line class="cls-1" x1="36.22" y1="49.94" x2="36.22" y2="40.02"/><line class="cls-1" x1="36.22" y1="40.02" x2="36.22" y2="40.02"/><line class="cls-1" x1="81.25" y1="65.15" x2="81.25" y2="45.31"/><line class="cls-1" x1="81.25" y1="45.31" x2="81.25" y2="45.31"/><line class="cls-1" x1="81.25" y1="65.15" x2="5.76" y2="65.15"/><line class="cls-1" x1="5.76" y1="65.15" x2="5.76" y2="65.15"/><line class="cls-1" x1="81.25" y1="80.36" x2="81.25" y2="65.15"/><line class="cls-1" x1="81.25" y1="65.15" x2="81.25" y2="65.15"/><line class="cls-1" x1="61.39" y1="94.91" x2="36.22" y2="94.91"/><line class="cls-1" x1="36.22" y1="94.91" x2="36.22" y2="94.91"/><line class="cls-1" x1="5.76" y1="104.83" x2="5.76" y2="65.15"/><line class="cls-1" x1="5.76" y1="65.15" x2="5.76" y2="65.15"/><line class="cls-1" x1="81.25" y1="135.26" x2="81.25" y2="110.13"/><line class="cls-1" x1="81.25" y1="110.13" x2="81.25" y2="110.13"/><line class="cls-1" x1="116.34" y1="135.26" x2="81.25" y2="135.26"/><line class="cls-1" x1="81.25" y1="135.26" x2="81.25" y2="135.26"/><line class="cls-1" x1="36.22" y1="145.18" x2="36.22" y2="94.91"/><line class="cls-1" x1="36.22" y1="94.91" x2="36.22" y2="94.91"/><line class="cls-1" x1="81.25" y1="145.18" x2="81.25" y2="135.26"/><line class="cls-1" x1="81.25" y1="135.26" x2="81.25" y2="135.26"/><line class="cls-1" x1="5.76" y1="190.16" x2="5.76" y2="125.34"/><line class="cls-1" x1="5.76" y1="125.34" x2="5.76" y2="125.34"/><line class="cls-1" x1="36.22" y1="190.16" x2="36.22" y2="170.31"/><line class="cls-1" x1="36.22" y1="170.31" x2="36.22" y2="170.31"/><line class="cls-1" x1="81.25" y1="190.16" x2="81.25" y2="170.31"/><line class="cls-1" x1="81.25" y1="170.31" x2="81.25" y2="170.31"/><rect x="79.93" y="63.83" width="3.31" height="3.31"/><rect x="79.93" y="133.94" width="3.31" height="3.31"/></svg>